<?xml version="1.0" encoding="UTF-8" standalone="no"?>
<!DOCTYPE svg PUBLIC "-//W3C//DTD SVG 1.1//EN"
 "http://www.w3.org/Graphics/SVG/1.1/DTD/svg11.dtd">
<!-- Generated by graphviz version 14.1.5 (20260411.2331)
 -->
<!-- Title: item_0022 Pages: 1 -->
<svg width="779pt" height="240pt"
 viewBox="0.00 0.00 779.00 240.00" xmlns="http://www.w3.org/2000/svg" xmlns:xlink="http://www.w3.org/1999/xlink">
<g id="graph0" class="graph" transform="scale(1 1) rotate(0) translate(4 236.06)">
<title>item_0022</title>
<polygon fill="white" stroke="none" points="-4,4 -4,-236.06 774.67,-236.06 774.67,4 -4,4"/>
<text xml:space="preserve" text-anchor="middle" x="385.34" y="-218.56" font-family="Helvetica,sans-Serif" font-size="10.00">item_0022 &#160;[FN]</text>
<!-- FACT&#45;1 -->
<g id="node1" class="node">
<title>FACT&#45;1</title>
<polygon fill="#a8d5a2" stroke="black" points="135.25,-46.03 0,-46.03 0,-8.78 135.25,-8.78 135.25,-46.03"/>
<text xml:space="preserve" text-anchor="middle" x="67.62" y="-33.48" font-family="Helvetica,sans-Serif" font-size="9.00">FACT&#45;1</text>
<text xml:space="preserve" text-anchor="middle" x="67.62" y="-23.73" font-family="Helvetica,sans-Serif" font-size="9.00">CurrentAge(samantha, n_31)</text>
<text xml:space="preserve" text-anchor="middle" x="67.62" y="-13.98" font-family="Helvetica,sans-Serif" font-size="9.00">(SUPPORTED)</text>
</g>
<!-- FACT&#45;2 -->
<g id="node2" class="node">
<title>FACT&#45;2</title>
<polygon fill="#a8d5a2" stroke="black" points="334.12,-50.9 153.12,-50.9 153.12,-3.9 334.12,-3.9 334.12,-50.9"/>
<text xml:space="preserve" text-anchor="middle" x="243.62" y="-38.35" font-family="Helvetica,sans-Serif" font-size="9.00">FACT&#45;2</text>
<text xml:space="preserve" text-anchor="middle" x="243.62" y="-28.6" font-family="Helvetica,sans-Serif" font-size="9.00">BirthYearDifference(raymond, samantha,</text>
<text xml:space="preserve" text-anchor="middle" x="243.62" y="-18.85" font-family="Helvetica,sans-Serif" font-size="9.00">n_6)</text>
<text xml:space="preserve" text-anchor="middle" x="243.62" y="-9.1" font-family="Helvetica,sans-Serif" font-size="9.00">(SUPPORTED)</text>
</g>
<!-- FACT&#45;3 -->
<g id="node3" class="node">
<title>FACT&#45;3</title>
<polygon fill="#a8d5a2" stroke="black" points="494.62,-46.03 352.62,-46.03 352.62,-8.78 494.62,-8.78 494.62,-46.03"/>
<text xml:space="preserve" text-anchor="middle" x="423.62" y="-33.48" font-family="Helvetica,sans-Serif" font-size="9.00">FACT&#45;3</text>
<text xml:space="preserve" text-anchor="middle" x="423.62" y="-23.73" font-family="Helvetica,sans-Serif" font-size="9.00">HadSonAtAge(raymond, n_23)</text>
<text xml:space="preserve" text-anchor="middle" x="423.62" y="-13.98" font-family="Helvetica,sans-Serif" font-size="9.00">(SUPPORTED)</text>
</g>
<!-- INF&#45;1 -->
<g id="node5" class="node">
<title>INF&#45;1</title>
<polygon fill="#f5e642" stroke="black" stroke-width="2" points="532.62,-208.56 376.38,-151.81 532.62,-95.06 688.88,-151.81 532.62,-208.56"/>
<polygon fill="none" stroke="black" stroke-width="2" points="532.62,-212.81 364.66,-151.81 532.62,-90.8 700.59,-151.81 532.62,-212.81"/>
<text xml:space="preserve" text-anchor="middle" x="532.62" y="-167.63" font-family="Helvetica,sans-Serif" font-size="9.00">INF&#45;1</text>
<text xml:space="preserve" text-anchor="middle" x="532.62" y="-157.88" font-family="Helvetica,sans-Serif" font-size="9.00">The son was born 23 years after</text>
<text xml:space="preserve" text-anchor="middle" x="532.62" y="-148.13" font-family="Helvetica,sans-Serif" font-size="9.00">Raymond&#39;s birth, from FACT&#45;3 and</text>
<text xml:space="preserve" text-anchor="middle" x="532.62" y="-138.38" font-family="Helvetica,sans-Serif" font-size="9.00">RULE&#45;1 by Modus Ponens</text>
<text xml:space="preserve" text-anchor="middle" x="532.62" y="-128.63" font-family="Helvetica,sans-Serif" font-size="9.00">PROVED</text>
</g>
<!-- FACT&#45;3&#45;&gt;INF&#45;1 -->
<g id="edge1" class="edge">
<title>FACT&#45;3&#45;&gt;INF&#45;1</title>
<path fill="none" stroke="#555555" d="M439.71,-46.46C451.62,-59.84 468.52,-78.82 484.65,-96.93"/>
<polygon fill="#555555" stroke="#555555" points="481.71,-98.89 490.97,-104.03 486.94,-94.24 481.71,-98.89"/>
</g>
<!-- RULE&#45;1 -->
<g id="node4" class="node">
<title>RULE&#45;1</title>
<ellipse fill="#a8c8e8" stroke="black" cx="641.62" cy="-27.4" rx="129.05" ry="27.4"/>
<text xml:space="preserve" text-anchor="middle" x="641.62" y="-34.23" font-family="Helvetica,sans-Serif" font-size="9.00">RULE&#45;1</text>
<text xml:space="preserve" text-anchor="middle" x="641.62" y="-24.48" font-family="Helvetica,sans-Serif" font-size="9.00">∀p∀a(HadSonAtAge(p, a) → BirthGap(p,</text>
<text xml:space="preserve" text-anchor="middle" x="641.62" y="-13.23" font-family="Helvetica,sans-Serif" font-size="9.00">a))</text>
</g>
<!-- RULE&#45;1&#45;&gt;INF&#45;1 -->
<g id="edge2" class="edge">
<title>RULE&#45;1&#45;&gt;INF&#45;1</title>
<path fill="none" stroke="#555555" d="M618.24,-54.66C607.26,-66.99 593.74,-82.17 580.72,-96.79"/>
<polygon fill="#555555" stroke="#555555" points="578.18,-94.39 574.14,-104.18 583.41,-99.04 578.18,-94.39"/>
</g>
</g>
</svg>
